<?xml version="1.0" encoding="iso-8859-1"?>
<!-- Generator: Adobe Illustrator 19.0.0, SVG Export Plug-In . SVG Version: 6.00 Build 0)  -->
<svg version="1.1" id="Capa_1" xmlns="http://www.w3.org/2000/svg" xmlns:xlink="http://www.w3.org/1999/xlink" x="0px" y="0px"
	 viewBox="0 0 512 512" style="enable-background:new 0 0 512 512;" xml:space="preserve">
<g>
	<g>
		<path d="M506.697,236.319c-0.184-0.176-171.259-85.861-171.259-85.861c-1.479-0.74-3.115-1.125-4.771-1.125H288
			c-5.896,0-10.667,4.771-10.667,10.667v21.333c0,5.896,4.771,10.667,10.667,10.667s10.667-4.771,10.667-10.667v-10.667h29.479
			l128,64H55.854l128-64h29.479v10.667c0,5.896,4.771,10.667,10.667,10.667s10.667-4.771,10.667-10.667V160
			c0-5.896-4.771-10.667-10.667-10.667h-42.667c-1.656,0-3.292,0.385-4.771,1.125c0,0-171.108,85.698-171.284,85.878
			C2.178,238.202,0,241.448,0,245.333V288c0,5.896,4.771,10.667,10.667,10.667h10.667v10.667C21.333,315.229,26.104,320,32,320
			h10.667v10.667c0,5.896,4.771,10.667,10.667,10.667H64V352c0,5.896,4.771,10.667,10.667,10.667h106.667
			c5.896,0,10.667-4.771,10.667-10.667v-10.667h10.667c5.896,0,10.667-4.771,10.667-10.667V320H224
			c5.896,0,10.667-4.771,10.667-10.667V256h42.667v53.333c0,5.896,4.771,10.667,10.667,10.667h10.667v10.667
			c0,5.896,4.771,10.667,10.667,10.667H320V352c0,5.896,4.771,10.667,10.667,10.667h106.667c5.896,0,10.667-4.771,10.667-10.667
			v-10.667h10.667c5.896,0,10.667-4.771,10.667-10.667V320H480c5.896,0,10.667-4.771,10.667-10.667v-10.667h10.667
			c5.896,0,10.667-4.771,10.667-10.667v-42.667C512,241.437,509.811,238.18,506.697,236.319z M128,330.667h-21.333v-21.333H85.333
			V288H64v-21.333h21.333V288h21.333v21.333H128V330.667z M384,330.667h-21.333v-21.333h-21.333V288H320v-21.333h21.333V288h21.333
			v21.333H384V330.667z"/>
	</g>
</g>
<g>
</g>
<g>
</g>
<g>
</g>
<g>
</g>
<g>
</g>
<g>
</g>
<g>
</g>
<g>
</g>
<g>
</g>
<g>
</g>
<g>
</g>
<g>
</g>
<g>
</g>
<g>
</g>
<g>
</g>
</svg>
