<svg height="512pt" viewBox="0 -1 512 511" width="512pt" xmlns="http://www.w3.org/2000/svg"><path d="m336.335938 510.046875c-4.472657 0-8.941407-.542969-13.289063-1.625l-141.339844-35.1875c-3.953125-.984375-8.128906-.984375-12.078125 0l-126.175781 31.410156c-10.523437 2.621094-21.460937.292969-30.007813-6.386719-8.542968-6.675781-13.445312-16.726562-13.445312-27.574218v-400.78125c0-16.105469 10.914062-30.070313 26.546875-33.960938l135.832031-33.820312c8.695313-2.1640628 17.882813-2.1601565 26.574219 0l141.339844 35.191406c3.953125.980469 8.128906.980469 12.082031 0l126.167969-31.414062c10.523437-2.621094 21.464843-.292969 30.011719 6.386718 8.542968 6.679688 13.445312 16.730469 13.445312 27.578125v400.777344c0 16.105469-10.914062 30.074219-26.542969 33.964844l-135.835937 33.816406c-4.347656 1.082031-8.816406 1.625-13.285156 1.625zm0 0" fill="#ececf1"/><path d="m330.292969 37.3125-141.339844-35.191406c-4.238281-1.054688-8.59375-1.585938-12.953125-1.613282v471.996094c1.921875.027344 3.839844.265625 5.707031.730469l141.339844 35.1875c4.238281 1.054687 8.59375 1.585937 12.953125 1.613281v-471.996094c-1.921875-.027343-3.839844-.261718-5.707031-.726562zm0 0" fill="#b6c4cf"/><path d="m480.078125 35.921875c-.71875-.558594-2.226563-1.425781-4.285156-.914063l-126.171875 31.414063c-4.347656 1.082031-8.816406 1.625-13.289063 1.625v412c2.03125 0 4.066407-.246094 6.039063-.738281l135.835937-33.816406c2.234375-.554688 3.792969-2.550782 3.792969-4.851563v-400.777344c0-2.121093-1.203125-3.378906-1.921875-3.941406zm0 0" fill="#a8ebfa"/><path d="m242.0625 104.671875c1.664062 41.558594 38.421875 75.585937 78.25 82.484375 20.597656 3.566406 44.386719 2.320312 58.890625 17.800781 9.964844 10.636719 12.847656 26.925781 23.371094 36.972657 12.457031 11.886718 32.125 11.496093 48.109375 5.59375 10.960937-4.050782 21.011718-10.238282 31.316406-15.867188v-191.792969c0-2.121093-1.203125-3.378906-1.921875-3.941406-.71875-.558594-2.226563-1.421875-4.289063-.910156l-126.167968 31.410156c-8.691406 2.164063-17.882813 2.164063-26.574219 0l-65.828125-16.386719c-9.496094 16.734375-15.925781 35.421875-15.15625 54.636719zm0 0" fill="#74dc82"/><path d="m426.578125 429.554688c-16.109375-4.570313-33.589844-2.023438-50.550781-2.171876-25.078125-.222656-52.347656-8.144531-64.589844-27.042968-10.066406-15.535156-13.234375-34.769532-21.71875-51.097656-8.320312-16.011719-20.449219-25.980469-41.453125-23.082032-20.753906 2.863282-38.910156 13.222656-58.292969 20.230469-19.386718 7.007813-43.203125 10.265625-60.300781-.285156-20.75-12.808594-24.59375-41.664063-48.253906-49.898438-15.664063-5.453125-34.175781 1.246094-45.398438 12.140625-2.214843 2.15625-4.203125 4.445313-6.019531 6.832032v155.5c0 2.121093 1.203125 3.378906 1.921875 3.941406.714844.558594 2.226563 1.421875 4.285156.910156l126.171875-31.410156c4.347656-1.082032 8.816406-1.625 13.285156-1.625 4.472657 0 8.941407.542968 13.289063 1.625l141.339844 35.1875c3.949219.984375 8.128906.984375 12.078125 0l108.703125-27.0625c-2.007813-10.007813-12.628907-19.324219-24.496094-22.691406zm0 0" fill="#74dc82"/><path d="m169.625 31.234375-135.832031 33.816406c-2.234375.558594-3.792969 2.554688-3.792969 4.851563v400.78125c0 2.121094 1.203125 3.378906 1.921875 3.9375.714844.558594 2.226563 1.421875 4.285156.914062l126.171875-31.414062c4.347656-1.082032 8.816406-1.621094 13.289063-1.621094v-412.003906c-2.035157 0-4.066407.246094-6.042969.738281zm0 0" fill="#a8ebfa"/><path d="m323.046875 66.421875-141.339844-35.1875c-1.976562-.492187-4.007812-.738281-6.039062-.738281v412.003906c4.46875 0 8.941406.539062 13.285156 1.621094l141.339844 35.191406c1.976562.488281 4.007812.738281 6.039062.738281v-412.003906c-4.46875 0-8.9375-.542969-13.285156-1.625zm0 0" fill="#7cc8f0"/><path d="m323.046875 66.421875-65.828125-16.386719c-9.496094 16.734375-15.925781 35.421875-15.15625 54.636719 1.664062 41.558594 38.421875 75.585937 78.25 82.484375 5.203125.898438 10.609375 1.492188 16.019531 2.128906v-121.238281c-4.46875 0-8.9375-.542969-13.285156-1.625zm0 0" fill="#45b77e"/><path d="m379.203125 204.957031c9.964844 10.636719 12.851563 26.925781 23.375 36.972657 12.453125 11.886718 32.121094 11.496093 48.105469 5.59375 10.960937-4.050782 21.011718-10.238282 31.316406-15.867188v-191.792969c0-2.121093-1.203125-3.378906-1.921875-3.941406-.71875-.558594-2.226563-1.421875-4.285156-.910156l-126.171875 31.410156c-4.347656 1.082031-8.816406 1.625-13.289063 1.625v121.238281c16.007813 1.875 32.03125 4.101563 42.871094 15.671875zm0 0" fill="#74dc82"/><path d="m129.675781 346.105469c-20.753906-12.808594-24.597656-41.664063-48.253906-49.898438-15.667969-5.449219-34.179687 1.246094-45.398437 12.144531-2.21875 2.152344-4.207032 4.441407-6.023438 6.832032v155.5c0 2.121094 1.203125 3.378906 1.921875 3.9375.714844.558594 2.226563 1.421875 4.285156.914062l126.171875-31.414062c4.347656-1.082032 8.816406-1.621094 13.289063-1.621094v-91.910156c-15.9375 3.574218-32.929688 3.578125-45.992188-4.484375zm0 0" fill="#74dc82"/><path d="m311.4375 400.339844c-10.066406-15.535156-13.234375-34.769532-21.71875-51.097656-8.320312-16.007813-20.449219-25.976563-41.453125-23.082032-20.753906 2.863282-38.910156 13.222656-58.292969 20.234375-4.570312 1.648438-9.390625 3.089844-14.308594 4.191407v91.914062c4.472657 0 8.941407.539062 13.289063 1.621094l141.339844 35.1875c1.976562.492187 4.007812.738281 6.039062.738281v-60.222656c-10.371093-4.367188-19.238281-10.75-24.894531-19.484375zm0 0" fill="#45b77e"/><path d="m342.371094 479.3125 108.703125-27.0625c-2.007813-10.011719-12.628907-19.328125-24.496094-22.695312-16.109375-4.570313-33.589844-2.023438-50.550781-2.171876-13.492188-.117187-27.617188-2.472656-39.695313-7.558593v60.226562c2.03125 0 4.066407-.246093 6.039063-.738281zm0 0" fill="#74dc82"/><path d="m116.714844 150.730469 9.390625-9.394531c5.859375-5.859376 5.859375-15.355469 0-21.214844-5.855469-5.859375-15.351563-5.859375-21.210938 0l-9.394531 9.394531-9.394531-9.394531c-5.855469-5.859375-15.355469-5.859375-21.210938 0-5.859375 5.859375-5.859375 15.355468 0 21.214844l9.390625 9.394531-9.390625 9.390625c-5.859375 5.859375-5.859375 15.355468 0 21.214844 2.925781 2.929687 6.765625 4.394531 10.605469 4.394531 3.835938 0 7.675781-1.464844 10.605469-4.394531l9.394531-9.394532 9.394531 9.394532c2.925781 2.929687 6.765625 4.394531 10.605469 4.394531 3.835938 0 7.675781-1.464844 10.605469-4.394531 5.859375-5.859376 5.859375-15.355469 0-21.214844zm0 0" fill="#e63950"/></svg>