<?xml version="1.0" encoding="iso-8859-1"?>
<!-- Generator: Adobe Illustrator 19.0.0, SVG Export Plug-In . SVG Version: 6.00 Build 0)  -->
<svg version="1.1" id="Capa_1" xmlns="http://www.w3.org/2000/svg" xmlns:xlink="http://www.w3.org/1999/xlink" x="0px" y="0px"
	 viewBox="0 0 512 512" style="enable-background:new 0 0 512 512;" xml:space="preserve">
<g>
	<path style="fill:#71C285;" d="M476.69,17.655h26.483c4.875,0,8.828,3.952,8.828,8.828v476.69c0,4.875-3.952,8.828-8.828,8.828
		H8.828C3.952,512,0,508.048,0,503.172V26.483c0-4.875,3.952-8.828,8.828-8.828H476.69z"/>
	<path style="fill:#CC4B4C;" d="M264.828,0h141.241v52.966c0,4.875-3.952,8.828-8.828,8.828H273.655
		c-4.875,0-8.828-3.952-8.828-8.828V0z"/>
	<g>
		<path style="fill:#E4C05C;" d="M441.379,0h35.31v35.31c0,4.875-3.952,8.828-8.828,8.828h-17.655c-4.875,0-8.828-3.952-8.828-8.828
			V0z"/>
		<path style="fill:#E4C05C;" d="M194.207,0h35.31v35.31c0,4.875-3.952,8.828-8.828,8.828h-17.655c-4.875,0-8.828-3.952-8.828-8.828
			V0z"/>
	</g>
	<path style="fill:#B19046;" d="M141.241,97.103c-4.875,0-8.828-3.952-8.828-8.828v-35.31c0-4.875,3.952-8.828,8.828-8.828
		s8.828,3.952,8.828,8.828v35.31C150.069,93.151,146.117,97.103,141.241,97.103z"/>
	<g>
		<path style="fill:#ECF0F1;" d="M88.276,61.793c-3.569-0.014-6.782-2.168-8.151-5.464c-1.369-3.297-0.626-7.093,1.883-9.631
			c2.525-2.546,6.341-3.312,9.653-1.937c3.312,1.375,5.463,4.618,5.442,8.204c0.023,2.348-0.9,4.607-2.56,6.267
			C92.883,60.893,90.624,61.816,88.276,61.793z"/>
		<path style="fill:#ECF0F1;" d="M35.31,61.793c-3.569-0.014-6.782-2.168-8.151-5.464c-1.369-3.297-0.626-7.093,1.883-9.631
			c3.539-3.268,8.996-3.268,12.535,0c2.546,2.525,3.312,6.341,1.937,9.653C42.139,59.663,38.897,61.814,35.31,61.793z"/>
	</g>
	<g>
		<path style="fill:#E4C05C;" d="M44.138,123.586h17.655c4.875,0,8.828,3.952,8.828,8.828V291.31c0,4.875-3.952,8.828-8.828,8.828
			H44.138c-4.875,0-8.828-3.952-8.828-8.828V132.414C35.31,127.538,39.263,123.586,44.138,123.586z"/>
		<path style="fill:#E4C05C;" d="M114.759,123.586h17.655c4.875,0,8.828,3.952,8.828,8.828V291.31c0,4.875-3.952,8.828-8.828,8.828
			h-17.655c-4.875,0-8.828-3.952-8.828-8.828V132.414C105.931,127.538,109.883,123.586,114.759,123.586z"/>
	</g>
	<g>
		<circle style="fill:#5E5F62;" cx="52.966" cy="353.103" r="17.655"/>
		<path style="fill:#5E5F62;" d="M79.448,414.897h35.31c4.875,0,8.828,3.952,8.828,8.828v35.31c0,4.875-3.952,8.828-8.828,8.828
			h-35.31c-4.875,0-8.828-3.952-8.828-8.828v-35.31C70.621,418.849,74.573,414.897,79.448,414.897z"/>
	</g>
	<path style="fill:#B19046;" d="M114.759,335.448h17.655c4.875,0,8.828,3.952,8.828,8.828v17.655c0,4.875-3.952,8.828-8.828,8.828
		h-17.655c-4.875,0-8.828-3.952-8.828-8.828v-17.655C105.931,339.401,109.883,335.448,114.759,335.448z"/>
	<rect x="229.517" y="114.759" style="fill:#E57E25;" width="35.31" height="88.276"/>
	<g>
		<path style="fill:#F29C1F;" d="M194.207,114.759h35.31v88.276h-26.483c-4.869-0.015-8.813-3.958-8.828-8.828V114.759z"/>
		<path style="fill:#F29C1F;" d="M300.138,114.759v79.448c-0.015,4.869-3.958,8.813-8.828,8.828h-26.483v-88.276H300.138z"/>
		<path style="fill:#F29C1F;" d="M512,291.31v35.31h-35.31v44.138c-0.015,4.869-3.958,8.813-8.828,8.828H308.966
			c-4.869-0.015-8.813-3.958-8.828-8.828V247.172c0.015-4.869,3.958-8.813,8.828-8.828h158.897c4.869,0.015,8.813,3.958,8.828,8.828
			v44.138H512z"/>
	</g>
	<g>
		<path style="fill:#5E5F62;" d="M335.448,282.483c-2.337-0.035-4.575-0.949-6.268-2.56c-0.353-0.444-0.707-0.884-1.06-1.323
			c-0.335-0.492-0.603-1.027-0.797-1.591c-0.254-0.501-0.431-1.037-0.526-1.59c-0.104-0.582-0.163-1.172-0.176-1.763
			c0-4.875,3.952-8.828,8.828-8.828s8.828,3.952,8.828,8.828c-0.016,0.591-0.075,1.18-0.177,1.763
			c-0.098,0.553-0.277,1.089-0.53,1.59c-0.194,0.563-0.462,1.098-0.797,1.591c-0.325,0.462-0.678,0.904-1.056,1.324
			C340.023,281.533,337.785,282.447,335.448,282.483z"/>
		<path style="fill:#5E5F62;" d="M335.448,353.103c-1.155-0.014-2.296-0.254-3.358-0.707c-1.068-0.449-2.051-1.076-2.909-1.854
			c-3.414-3.481-3.414-9.054,0-12.534c0.857-0.78,1.841-1.409,2.909-1.858c1.611-0.702,3.401-0.886,5.121-0.526
			c0.553,0.095,1.09,0.272,1.59,0.526c0.563,0.194,1.098,0.462,1.591,0.797c0.44,0.353,0.879,0.707,1.323,1.06
			c3.414,3.481,3.414,9.054,0,12.534c-0.444,0.353-0.884,0.707-1.323,1.056c-0.492,0.335-1.027,0.603-1.591,0.797
			c-0.501,0.253-1.037,0.432-1.59,0.53C336.629,353.028,336.039,353.087,335.448,353.103z"/>
		<path style="fill:#5E5F62;" d="M441.379,282.483c-1.155-0.014-2.296-0.254-3.358-0.707c-1.068-0.449-2.051-1.076-2.909-1.854
			c-0.353-0.444-0.707-0.884-1.06-1.323c-0.335-0.492-0.603-1.027-0.797-1.591c-0.254-0.501-0.431-1.037-0.526-1.59
			c-0.104-0.582-0.163-1.171-0.177-1.763c0.033-2.337,0.947-4.576,2.56-6.268c0.857-0.78,1.841-1.409,2.909-1.858
			c3.294-1.34,7.067-0.612,9.626,1.858c1.611,1.693,2.525,3.931,2.56,6.268c-0.016,0.591-0.075,1.18-0.177,1.763
			c-0.098,0.553-0.277,1.089-0.53,1.59c-0.194,0.563-0.462,1.098-0.797,1.591c-0.325,0.462-0.678,0.904-1.056,1.324
			C445.954,281.533,443.716,282.447,441.379,282.483z"/>
		<path style="fill:#5E5F62;" d="M441.379,353.103c-3.569-0.014-6.782-2.168-8.151-5.465c-1.369-3.297-0.626-7.092,1.883-9.631
			c2.113-2.021,5.067-2.907,7.944-2.383c0.584,0.081,1.151,0.259,1.677,0.526c0.563,0.194,1.098,0.462,1.591,0.797
			c0.44,0.353,0.879,0.707,1.323,1.06c3.414,3.481,3.414,9.054,0,12.534c-0.444,0.353-0.884,0.707-1.323,1.056
			c-0.492,0.335-1.027,0.603-1.591,0.797c-0.527,0.266-1.093,0.445-1.677,0.53C442.502,353.028,441.942,353.087,441.379,353.103z"/>
	</g>
	<path style="fill:#CC4B4C;" d="M388.414,335.448c-4.875,0-8.828-3.952-8.828-8.828v-35.31c0-4.875,3.952-8.828,8.828-8.828
		s8.828,3.952,8.828,8.828v35.31C397.241,331.496,393.289,335.448,388.414,335.448z"/>
	<g>
		<path style="fill:#ECF0F1;" d="M353.103,317.793h-17.655c-4.875,0-8.828-3.952-8.828-8.828s3.952-8.828,8.828-8.828h17.655
			c4.875,0,8.828,3.952,8.828,8.828S357.979,317.793,353.103,317.793z"/>
		<path style="fill:#ECF0F1;" d="M441.379,317.793h-17.655c-4.875,0-8.828-3.952-8.828-8.828s3.952-8.828,8.828-8.828h17.655
			c4.875,0,8.828,3.952,8.828,8.828S446.255,317.793,441.379,317.793z"/>
	</g>
	<rect x="353.103" y="132.414" style="fill:#E4C05C;" width="105.931" height="52.966"/>
	<path style="fill:#5E5F62;" d="M185.379,238.345H256c4.875,0,8.828,3.952,8.828,8.828v123.586c0,4.875-3.952,8.828-8.828,8.828
		h-70.621c-4.875,0-8.828-3.952-8.828-8.828V247.172C176.552,242.297,180.504,238.345,185.379,238.345z"/>
	<g>
		<path style="fill:#A5A5A4;" d="M220.69,282.483c-2.337-0.035-4.575-0.949-6.268-2.56c-0.353-0.444-0.707-0.884-1.06-1.323
			c-0.335-0.492-0.603-1.027-0.797-1.591c-0.254-0.501-0.431-1.037-0.526-1.59c-0.104-0.582-0.162-1.172-0.176-1.763
			c0.033-2.337,0.947-4.576,2.56-6.268c2.112-2.083,5.123-2.977,8.03-2.383c0.553,0.095,1.09,0.272,1.59,0.526
			c0.563,0.194,1.098,0.462,1.591,0.797c0.462,0.327,0.904,0.681,1.324,1.06c1.611,1.693,2.525,3.931,2.56,6.268
			c-0.016,0.591-0.075,1.18-0.177,1.763c-0.098,0.553-0.277,1.089-0.53,1.59c-0.194,0.563-0.462,1.098-0.797,1.591
			c-0.349,0.44-0.703,0.879-1.056,1.323c-0.444,0.353-0.884,0.707-1.323,1.056c-0.492,0.335-1.027,0.603-1.591,0.797
			c-0.501,0.253-1.037,0.432-1.59,0.53C221.87,282.408,221.281,282.467,220.69,282.483z"/>
		<path style="fill:#A5A5A4;" d="M220.69,317.793c-1.155-0.014-2.296-0.254-3.358-0.707c-1.068-0.449-2.051-1.076-2.91-1.854
			c-0.353-0.444-0.707-0.884-1.06-1.323c-0.335-0.492-0.603-1.027-0.797-1.591c-0.254-0.501-0.431-1.037-0.526-1.59
			c-0.104-0.582-0.163-1.171-0.177-1.763c0.012-1.154,0.251-2.295,0.703-3.358c0.811-2.213,2.554-3.956,4.767-4.767
			c1.611-0.702,3.401-0.886,5.121-0.526c0.553,0.095,1.09,0.272,1.59,0.526c0.563,0.194,1.098,0.462,1.591,0.797
			c0.44,0.353,0.879,0.707,1.323,1.06c0.778,0.858,1.405,1.842,1.854,2.909c0.453,1.062,0.693,2.203,0.707,3.357
			c-0.016,0.591-0.075,1.18-0.177,1.763c-0.098,0.553-0.277,1.089-0.53,1.59c-0.194,0.563-0.462,1.098-0.797,1.591
			c-0.349,0.44-0.703,0.879-1.056,1.323c-0.444,0.353-0.884,0.707-1.323,1.056c-0.492,0.335-1.027,0.603-1.591,0.797
			c-0.501,0.253-1.037,0.432-1.59,0.53C221.87,317.718,221.281,317.777,220.69,317.793z"/>
		<path style="fill:#A5A5A4;" d="M220.69,353.103c-1.155-0.014-2.296-0.254-3.358-0.707c-1.068-0.449-2.051-1.076-2.91-1.854
			c-3.414-3.481-3.414-9.054,0-12.534c0.857-0.78,1.841-1.409,2.91-1.858c1.611-0.702,3.401-0.886,5.121-0.526
			c0.554,0.095,1.09,0.272,1.59,0.526c0.563,0.194,1.098,0.462,1.591,0.797c0.44,0.353,0.879,0.707,1.323,1.06
			c3.414,3.481,3.414,9.054,0,12.534c-0.444,0.353-0.884,0.707-1.323,1.056c-0.492,0.335-1.027,0.603-1.591,0.797
			c-0.501,0.253-1.037,0.432-1.59,0.53C221.87,353.028,221.281,353.087,220.69,353.103z"/>
	</g>
	<path style="fill:#5E5F62;" d="M167.724,414.897h300.138c4.875,0,8.828,3.952,8.828,8.828v35.31c0,4.875-3.952,8.828-8.828,8.828
		H167.724c-4.875,0-8.828-3.952-8.828-8.828v-35.31C158.897,418.849,162.849,414.897,167.724,414.897z"/>
	<path style="fill:#ECF0F1;" d="M35.31,485.517c-3.569-0.014-6.782-2.168-8.151-5.465c-1.369-3.297-0.626-7.092,1.883-9.631
		c0.827-0.818,1.819-1.451,2.909-1.858c2.151-0.879,4.561-0.879,6.711,0c1.081,0.428,2.07,1.059,2.915,1.858
		c1.611,1.693,2.525,3.931,2.56,6.268c-0.014,1.153-0.254,2.293-0.707,3.353c-0.449,1.069-1.076,2.054-1.854,2.914
		C39.884,484.568,37.647,485.482,35.31,485.517z"/>
	<g>
		<path style="fill:#E4C05C;" d="M203.034,450.207v17.655h-17.655v-17.655c0-4.875,3.952-8.828,8.828-8.828
			S203.034,445.332,203.034,450.207z"/>
		<path style="fill:#E4C05C;" d="M238.345,450.207v17.655H220.69v-17.655c0-4.875,3.952-8.828,8.828-8.828
			S238.345,445.332,238.345,450.207z"/>
		<path style="fill:#E4C05C;" d="M273.655,450.207v17.655H256v-17.655c0-4.875,3.952-8.828,8.828-8.828
			S273.655,445.332,273.655,450.207z"/>
		<path style="fill:#E4C05C;" d="M308.966,450.207v17.655H291.31v-17.655c0-4.875,3.952-8.828,8.828-8.828
			S308.966,445.332,308.966,450.207z"/>
		<path style="fill:#E4C05C;" d="M344.276,450.207v17.655h-17.655v-17.655c0-4.875,3.952-8.828,8.828-8.828
			S344.276,445.332,344.276,450.207z"/>
		<path style="fill:#E4C05C;" d="M379.586,450.207v17.655h-17.655v-17.655c0-4.875,3.952-8.828,8.828-8.828
			S379.586,445.332,379.586,450.207z"/>
		<path style="fill:#E4C05C;" d="M414.897,450.207v17.655h-17.655v-17.655c0-4.875,3.952-8.828,8.828-8.828
			S414.897,445.332,414.897,450.207z"/>
		<path style="fill:#E4C05C;" d="M450.207,450.207v17.655h-17.655v-17.655c0-4.875,3.952-8.828,8.828-8.828
			S450.207,445.332,450.207,450.207z"/>
		<path style="fill:#E4C05C;" d="M123.586,0h35.31v52.966c0,4.875-3.952,8.828-8.828,8.828h-17.655
			c-4.875,0-8.828-3.952-8.828-8.828V0z"/>
	</g>
	<g>
		<circle style="fill:#ECF0F1;" cx="194.207" cy="114.759" r="17.655"/>
		<circle style="fill:#ECF0F1;" cx="229.517" cy="114.759" r="17.655"/>
		<circle style="fill:#ECF0F1;" cx="264.828" cy="114.759" r="17.655"/>
		<circle style="fill:#ECF0F1;" cx="300.138" cy="114.759" r="17.655"/>
		<circle style="fill:#ECF0F1;" cx="353.103" cy="185.379" r="17.655"/>
		<circle style="fill:#ECF0F1;" cx="388.414" cy="185.379" r="17.655"/>
		<circle style="fill:#ECF0F1;" cx="423.724" cy="185.379" r="17.655"/>
		<circle style="fill:#ECF0F1;" cx="459.034" cy="185.379" r="17.655"/>
	</g>
</g>
<g>
</g>
<g>
</g>
<g>
</g>
<g>
</g>
<g>
</g>
<g>
</g>
<g>
</g>
<g>
</g>
<g>
</g>
<g>
</g>
<g>
</g>
<g>
</g>
<g>
</g>
<g>
</g>
<g>
</g>
</svg>
