<svg height="512pt" viewBox="-5 0 512 512" width="512pt" xmlns="http://www.w3.org/2000/svg"><path d="m7.613281 435.886719h129.394531v15.222656h-129.394531zm0 0" fill="#d2d2d2"/><path d="m393.15625 274.015625h-67.382812c-4.203126 0-7.613282 3.40625-7.613282 7.609375v111.214844l-25.238281 8.414062c-3.988281 1.328125-6.144531 5.640625-4.816406 9.628906 1.332031 3.988282 5.640625 6.144532 9.628906 4.8125l30.445313-10.148437c3.105468-1.035156 5.203124-3.945313 5.203124-7.21875v-109.089844h24.355469l15.121094 10.148438zm0 0" fill="#ffe8d1"/><path d="m209.4375 401.253906-25.238281-8.414062v-111.214844c0-4.203125-3.410157-7.609375-7.613281-7.609375h-72.558594l25.367187 25.371094 15.222657-10.148438h24.359374v109.089844c0 3.273437 2.09375 6.183594 5.203126 7.21875l30.445312 10.148437c3.984375 1.332032 8.296875-.824218 9.625-4.8125 1.332031-3.988281-.824219-8.296874-4.8125-9.628906zm0 0" fill="#31c2b2"/><path d="m235.957031 228.34375h30.445313v260.820312h-30.445313zm0 0" fill="#d2d2d2"/><path d="m289.671875 497.210938-23.269531-23.269532h-30.445313l-23.269531 23.269532c-3.949219 3.949218-11.742188 7.175781-17.324219 7.175781h111.632813c-5.582032 0-13.378906-3.226563-17.324219-7.175781zm0 0" fill="#828282"/><path d="m342.515625 213.121094-15.222656 15.222656 15.222656 15.222656h60.894531v-30.445312zm0 0" fill="#4a4a4a"/><path d="m98.949219 213.121094h243.566406v30.445312h-243.566406zm0 0" fill="#636363"/><path d="m444.003906 121.785156h-30.445312l5.074218 167.453125c25.222657 0 45.667969-20.449219 45.667969-45.671875v-101.484375c0-11.210937-9.085937-20.296875-20.296875-20.296875zm0 0" fill="#ea2820"/><path d="m413.558594 121.785156h-20.296875c-11.210938 0-20.296875 9.085938-20.296875 20.296875v147.15625l22.832031 15.222657 22.835937-15.222657c8.40625 0 15.222657-20.449219 15.222657-45.671875v-101.484375c0-11.210937-9.085938-20.296875-20.296875-20.296875zm0 0" fill="#ff443e"/><path d="m464.300781 289.238281-20.296875 15.222657 20.296875 15.222656h30.445313v-30.445313zm0 0" fill="#4a4a4a"/><path d="m372.964844 289.238281h91.335937v30.445313h-91.335937zm0 0" fill="#636363"/><path d="m78.652344 213.121094 20.296875 91.339844 30.445312-15.222657v-45.671875zm0 0" fill="#31c2b2"/><path d="m38.058594 243.566406c0 25.222656 20.445312 45.671875 45.667968 45.671875l15.222657 15.222657v-91.339844zm0 0" fill="#45decd"/><path d="m129.394531 142.082031c0-11.210937-9.085937-20.296875-20.296875-20.296875h-30.445312l20.296875 121.78125h30.445312zm0 0" fill="#ffd0a3"/><path d="m98.949219 142.082031c0-11.210937-9.085938-20.296875-20.296875-20.296875h-20.296875c-11.210938 0-20.296875 9.085938-20.296875 20.296875v101.484375h60.890625zm0 0" fill="#ffe8d1"/><path d="m98.949219 289.238281-20.296875 15.222657 20.296875 15.222656h30.445312v-30.445313zm0 0" fill="#4a4a4a"/><path d="m7.613281 289.238281h91.335938v30.445313h-91.335938zm0 0" fill="#636363"/><path d="m327.292969 512h-152.230469c-4.203125 0-7.609375-3.40625-7.609375-7.613281 0-4.203125 3.40625-7.609375 7.609375-7.609375h152.230469c4.207031 0 7.613281 3.40625 7.613281 7.609375 0 4.207031-3.40625 7.613281-7.613281 7.613281zm0 0" fill="#636363"/><path d="m494.746094 512c-4.203125 0-7.609375-3.40625-7.609375-7.613281v-276.042969c0-4.203125 3.40625-7.609375 7.609375-7.609375 4.207031 0 7.613281 3.40625 7.613281 7.609375v276.042969c0 4.207031-3.40625 7.613281-7.613281 7.613281zm0 0" fill="#c0c0c0"/><path d="m7.613281 512c-4.207031 0-7.613281-3.40625-7.613281-7.613281v-276.042969c0-4.203125 3.40625-7.609375 7.613281-7.609375 4.203125 0 7.609375 3.40625 7.609375 7.609375v276.042969c0 4.207031-3.40625 7.613281-7.609375 7.613281zm0 0" fill="#d2d2d2"/><path d="m357.742188 289.238281v215.148438c0 4.207031 3.40625 7.613281 7.609374 7.613281 4.203126 0 7.613282-3.40625 7.613282-7.613281v-215.148438zm0 0" fill="#d2d2d2"/><path d="m129.394531 289.238281v215.148438c0 4.207031 3.410157 7.613281 7.613281 7.613281 4.203126 0 7.609376-3.40625 7.609376-7.613281v-215.148438zm0 0" fill="#c0c0c0"/><path d="m365.351562 435.886719h129.394532v15.222656h-129.394532zm0 0" fill="#d2d2d2"/><path d="m83.726562 0v91.339844c25.222657 0 45.667969-20.449219 45.667969-45.671875 0-25.222657-20.445312-45.667969-45.667969-45.667969zm0 0" fill="#974d34"/><path d="m98.949219 45.667969c0-25.222657-6.816407-45.667969-15.222657-45.667969-25.222656 0-45.667968 20.445312-45.667968 45.667969 0 25.222656 20.445312 45.671875 45.667968 45.671875 8.40625 0 15.222657-20.449219 15.222657-45.671875zm0 0" fill="#b25b3d"/><path d="m372.964844 46.164062c-10.546875 0-19.417969 7.152344-22.042969 16.867188-4.976563 2.496094-8.40625 7.628906-8.40625 13.578125 0 8.410156 6.816406 15.226563 15.226563 15.226563h60.890624v-45.671876zm0 0" fill="#c96f3d"/><path d="m486.34375 63.03125c-2.625-9.714844-11.496094-16.867188-22.042969-16.867188h-45.667969v45.671876h60.890626c8.40625 0 15.222656-6.816407 15.222656-15.226563 0-5.949219-3.425782-11.082031-8.402344-13.578125zm0 0" fill="#b25b3d"/><path d="m432.933594 29.984375-14.300782 61.355469c25.222657 0 45.667969-20.449219 45.667969-45.671875zm0 0" fill="#ffd0a3"/><path d="m433.855469 45.667969c0-5.507813-.324219-10.792969-.921875-15.683594l-41.707032-20.847656c-11.089843 8.332031-18.261718 21.59375-18.261718 36.53125 0 25.222656 20.445312 45.671875 45.667968 45.671875 8.40625 0 15.222657-20.449219 15.222657-45.671875zm0 0" fill="#ffe8d1"/><path d="m418.632812 0 15.121094 40.425781c9.550782 3.390625 19.832032 5.242188 30.546875 5.242188 0-25.222657-20.445312-45.667969-45.667969-45.667969zm0 0" fill="#b25b3d"/><path d="m418.632812 0c-10.28125 0-19.769531 3.398438-27.40625 9.136719 10.691407 14.226562 25.441407 25.226562 42.523438 31.289062-.863281-22.75-7.300781-40.425781-15.117188-40.425781zm0 0" fill="#c96f3d"/><path d="m281.625 30.445312-60.890625 76.117188 60.890625 76.113281h30.445312v-152.230469zm0 0" fill="#a4e6fe"/><path d="m190.289062 30.445312h91.335938v152.230469h-91.335938zm0 0" fill="#cffffa"/><g fill="#636363"><path d="m281.625 144.617188h-60.890625c-4.203125 0-7.613281-3.40625-7.613281-7.609376 0-4.207031 3.410156-7.613281 7.613281-7.613281h60.890625c4.203125 0 7.613281 3.40625 7.613281 7.613281 0 4.203126-3.410156 7.609376-7.613281 7.609376zm0 0"/><path d="m281.625 114.171875h-60.890625c-4.203125 0-7.613281-3.40625-7.613281-7.609375 0-4.207031 3.410156-7.613281 7.613281-7.613281h60.890625c4.203125 0 7.613281 3.40625 7.613281 7.613281 0 4.203125-3.410156 7.609375-7.613281 7.609375zm0 0"/><path d="m281.625 83.726562h-60.890625c-4.203125 0-7.613281-3.40625-7.613281-7.613281 0-4.203125 3.410156-7.609375 7.613281-7.609375h60.890625c4.203125 0 7.613281 3.40625 7.613281 7.609375 0 4.207031-3.410156 7.613281-7.613281 7.613281zm0 0"/></g></svg>