<svg height="512pt" viewBox="0 0 512 512.002" width="512pt" xmlns="http://www.w3.org/2000/svg"><path d="m512 256c0 141.386719-114.613281 256-256 256-141.382812 0-256-114.613281-256-256s114.617188-256 256-256c141.386719 0 256 114.613281 256 256zm0 0" fill="#00efd1"/><path d="m511.863281 264.007812-163.960937-163.960937-30.230469-4.394531-61.671875-62.378906-28.398438 57.542968-63.5 9.226563 45.800782 45.652343-10.699219 62.386719 14.109375 13.148438c-13.761719 11.996093-22.472656 29.640625-22.472656 49.332031 0 17.082031 6.554687 32.625 17.277344 44.273438l-1.046876.710937-62.332031-64.34375-42.300781 28.757813 78.871094 116.023437v49.519531l66.347656 66.347656c2.773438.089844 5.550781.152344 8.34375.152344 138.707031-.003906 251.632812-110.320312 255.863281-247.996094zm0 0" fill="#00ceb4"/><path d="m331.246094 395.175781 78.320312-115.21875-42.304687-28.757812-52.960938 77.910156h-28.804687c21.46875-10.734375 36.214844-32.910156 36.214844-58.546875 0-36.136719-29.296876-65.433594-65.433594-65.433594-36.140625 0-65.4375 29.296875-65.4375 65.433594 0 25.636719 14.75 47.8125 36.214844 58.546875h-29.355469l-52.960938-77.910156-42.304687 28.757812 78.875 116.027344v49.519531h149.933594v-50.328125zm0 0" fill="#9331b2"/><path d="m409.5625 279.957031-78.3125 115.214844v50.328125h-75.25v-240.367188h.273438c36.136718 0 65.441406 29.292969 65.441406 65.433594 0 25.636719-14.75 47.804688-36.21875 58.546875h28.804687l52.964844-77.90625zm0 0" fill="#681f7b"/><path d="m256 33.273438 28.398438 57.542968 63.503906 9.230469-45.949219 44.789063 10.847656 63.246093-56.800781-29.859375-56.796875 29.859375 10.847656-63.246093-45.953125-44.789063 63.503906-9.230469zm0 0" fill="#ffaa20"/><path d="m301.953125 144.828125 10.847656 63.253906-56.800781-29.867187v-144.945313l28.402344 57.554688 63.492187 9.21875zm0 0" fill="#e67500"/></svg>