<svg height="464pt" viewBox="-24 0 464 464" width="464pt" xmlns="http://www.w3.org/2000/svg"><path d="m128 64h272c8.835938 0 16 7.164062 16 16v368c0 8.835938-7.164062 16-16 16h-272c-8.835938 0-16-7.164062-16-16v-368c0-8.835938 7.164062-16 16-16zm0 0" fill="#e6e7e8"/><path d="m416 110.238281v337.761719c-.027344 8.824219-7.175781 15.972656-16 16h-272c-8.824219-.027344-15.972656-7.175781-16-16v-52.800781c104.238281-47.597657 233.441406-133.917969 304-284.960938zm0 0" fill="#d8d7da"/><path d="m226.742188 397.257812c18.304687 18.304688 45.835937 23.777344 69.75 13.871094 23.914062-9.90625 39.507812-33.242187 39.507812-59.128906h-64zm0 0" fill="#00ccb3"/><path d="m272 288c-25.886719 0-49.222656 15.59375-59.128906 39.507812-9.90625 23.914063-4.433594 51.445313 13.871094 69.75l45.257812-45.257812zm0 0" fill="#1e81ce"/><path d="m272 288v64h64c0-35.347656-28.652344-64-64-64zm0 0" fill="#ffd422"/><path d="m168 168h-160c-4.417969 0-8 3.582031-8 8v80c0 4.417969 3.582031 8 8 8h120l48 48v-136c0-4.417969-3.582031-8-8-8zm0 0" fill="#00ccb3"/><path d="m376 0h-160c-4.417969 0-8 3.582031-8 8v80c0 4.417969 3.582031 8 8 8h96v48l48-48h16c4.417969 0 8-3.582031 8-8v-80c0-4.417969-3.582031-8-8-8zm0 0" fill="#ffd422"/><g fill="#ffb655"><path d="m24 192h16v16h-16zm0 0"/><path d="m56 192h96v16h-96zm0 0"/><path d="m24 224h128v16h-128zm0 0"/></g><path d="m232 24h128v16h-128zm0 0" fill="#ff7956"/><path d="m232 56h128v16h-128zm0 0" fill="#ff7956"/><path d="m344 264h32v16h-32zm0 0" fill="#ffd422"/><path d="m344 288h32v16h-32zm0 0" fill="#ffd422"/><path d="m344 408h32v16h-32zm0 0" fill="#00ccb3"/><path d="m152 336h32v16h-32zm0 0" fill="#1e81ce"/><path d="m152 360h32v16h-32zm0 0" fill="#1e81ce"/><path d="m200 168h96v16h-96zm0 0" fill="#acabb1"/><path d="m312 168h64v16h-64zm0 0" fill="#acabb1"/><path d="m200 200h32v16h-32zm0 0" fill="#acabb1"/><path d="m248 200h128v16h-128zm0 0" fill="#898890"/><path d="m200 232h112v16h-112zm0 0" fill="#898890"/><path d="m328 232h48v16h-48zm0 0" fill="#c6c5ca"/><path d="m200 120h48v16h-48zm0 0" fill="#898890"/><path d="m264 120h16v16h-16zm0 0" fill="#c6c5ca"/></svg>