<?xml version="1.0" encoding="iso-8859-1"?>
<!-- Generator: Adobe Illustrator 19.0.0, SVG Export Plug-In . SVG Version: 6.00 Build 0)  -->
<svg version="1.1" id="Layer_1" xmlns="http://www.w3.org/2000/svg" xmlns:xlink="http://www.w3.org/1999/xlink" x="0px" y="0px"
	 viewBox="0 0 512 512" style="enable-background:new 0 0 512 512;" xml:space="preserve">
<rect x="56.264" y="130.644" style="fill:#27467A;" width="45.011" height="67.516"/>
<rect x="410.725" y="130.644" style="fill:#111449;" width="45.011" height="67.516"/>
<polygon style="fill:#B7D9DD;" points="421.978,0 421.978,155.959 410.725,164.398 421.978,172.838 421.978,288.183 
	354.462,288.183 388.22,0 "/>
<polygon style="fill:#C7E7EB;" points="90.022,0 90.022,155.959 101.275,164.398 90.022,172.838 90.022,288.183 388.22,288.183 
	388.22,0 "/>
<path style="fill:#E02E00;" d="M444.484,220.666L413.381,512h33.758c17.183,0,31.103-13.92,31.103-31.103V220.666H444.484z"/>
<path style="fill:#FF4719;" d="M357.252,220.666c0,24.857-20.154,45.011-45.011,45.011H199.759
	c-24.857,0-45.011-20.154-45.011-45.011H33.758v260.231c0,17.183,13.92,31.103,31.103,31.103h348.52
	c17.183,0,31.103-13.92,31.103-31.103V220.666H357.252z"/>
<g>
	<path style="fill:#FFFFFF;" d="M385.808,340.396H126.192c-4.662,0-8.44-3.779-8.44-8.44s3.778-8.44,8.44-8.44h259.618
		c4.662,0,8.44,3.779,8.44,8.44S390.47,340.396,385.808,340.396z"/>
	<path style="fill:#FFFFFF;" d="M416.352,374.154H95.648c-4.662,0-8.44-3.779-8.44-8.44s3.778-8.44,8.44-8.44h320.703
		c4.662,0,8.44,3.779,8.44,8.44S421.014,374.154,416.352,374.154z"/>
	<path style="fill:#FFFFFF;" d="M385.808,407.912H126.192c-4.662,0-8.44-3.779-8.44-8.44s3.778-8.44,8.44-8.44h259.618
		c4.662,0,8.44,3.779,8.44,8.44S390.47,407.912,385.808,407.912z"/>
</g>
<polygon style="fill:#FFDB8A;" points="331.956,433.231 331.956,466.989 309.451,466.989 286.945,450.11 309.451,433.231 "/>
<rect x="90.022" y="155.963" style="fill:#5195AF;" width="331.956" height="16.879"/>
<path style="fill:#111449;" d="M292.452,36.571h-72.446c-4.662,0-8.44,3.779-8.44,8.44v11.253c0,4.661,3.778,8.44,8.44,8.44
	s8.44-3.779,8.44-8.44v-2.813h19.115v57.497h-2.813c-4.662,0-8.44,3.779-8.44,8.44s3.778,8.44,8.44,8.44h22.505
	c4.662,0,8.44-3.779,8.44-8.44s-3.778-8.44-8.44-8.44h-2.813V53.451h19.573v2.813c0,4.661,3.778,8.44,8.44,8.44
	s8.44-3.779,8.44-8.44V45.011C300.892,40.35,297.113,36.571,292.452,36.571z"/>
<rect x="202.549" y="433.231" style="fill:#FFEAB5;" width="106.901" height="33.758"/>
<g>
</g>
<g>
</g>
<g>
</g>
<g>
</g>
<g>
</g>
<g>
</g>
<g>
</g>
<g>
</g>
<g>
</g>
<g>
</g>
<g>
</g>
<g>
</g>
<g>
</g>
<g>
</g>
<g>
</g>
</svg>
